PathFileType	4	(X/Y/Z)	C:/Users/beibeiliu/ov580/test_trc/User2\sequence.4_training_dense_left.trc
DataRate	CameraRate	NumFrames	NumMarkers	Units	OrigDataRate	OrigDataStartFrame	OrigNumFrames
120	120	21	19	mm	120	223	296
Frame#	Time	ThumbCMC			ThumbMCP			ThumbIP			ThumbTip			IndexMCP			IndexPIP			IndexTip			MiddleMCP			MiddlePIP			MiddleTip			RingMCP			RingPIP			RingTip			PinkyMCP			PinkyPIP			PinkyTip			BackHand1			BackHand2			BackHand3	
		X0	Y0	Z0	X1	Y1	Z1	X2	Y2	Z2	X3	Y3	Z3	X4	Y4	Z4	X5	Y5	Z5	X6	Y6	Z6	X7	Y7	Z7	X8	Y8	Z8	X9	Y9	Z9	X10	Y10	Z10	X11	Y11	Z11	X12	Y12	Z12	X13	Y13	Z13	X14	Y14	Z14	X15	Y15	Z15	X16	Y16	Z16	X17	Y17	Z17	X18	Y18	Z18	
222	1.85	-159.607	-0.768265	95.2432	-127.482	-20.7255	77.2743	-107.236	-47.2808	62.4019	-102.175	-76.8606	63.2669	-197.671	-56.28	52.4381	-202.163	-77.0686	34.589	-207.601	-98.6413	18.8992	-179.469	-81.1791	57.0787	-141.626	-93.2287	46.8754	-113.482	-70.6804	66.0541	-165.179	-94.2555	71.9673	-134.251	-97.7705	69.1209	-111.025	-74.0168	82.7658	-162.058	-96.1506	98.9928	-125.744	-93.2782	91.3857	-114.48	-64.3657	102.081	-198.694	-59.3002	116.935	-201.753	-33.0552	142.182	-200.948	-20.1734	107.895	
223	1.85833	-161.082	1.78159	95.1547	-129.947	-14.7273	80.7983	-112.31	-42.1302	65.6149	-101.96	-69.8255	59.6289	-199.789	-55.6219	52.5408	-204.574	-77.1965	36.8879	-210.29	-99.4989	20.0447	-178.923	-82.5774	57.9938	-145.79	-91.1446	44.0862	-114.457	-67.5326	61.1151	-167.508	-90.9672	71.7088	-133.662	-93.5212	66.7946	-113.275	-71.3983	77.6791	-159.99	-95.8624	92.8437	-128.77	-89.6579	86.4391	-115.497	-62.9247	100.356	-200.573	-55.6341	115.778	-203.796	-37.6595	144.422	-200.884	-20.5259	108.737	
224	1.86667	-160.14	2.62228	97.8213	-131.493	-16.5052	80.2751	-107.316	-36.3075	62.7371	-100.811	-65.2393	58.3845	-199.754	-50.2665	49.9788	-205.394	-71.4534	31.0488	-209.665	-90.287	11.3553	-178.095	-78.3971	53.6594	-142.673	-87.8406	43.6457	-114.405	-64.2423	58.6577	-168.208	-87.0282	72.8948	-132.919	-91.943	65.2227	-112.507	-67.6739	76.7243	-159.933	-95.3624	92.67	-127.073	-89.6496	86.964	-115.539	-59.2048	100.058	-199.294	-55.0553	118.565	-203.766	-33.3158	145.199	-201.588	-16.1791	105.866	
225	1.875	-155.984	7.70164	99.4488	-124.705	-8.39795	81.4356	-107.525	-32.9904	69.5515	-99.979	-64.9184	60.2293	-195.684	-44.9183	45.5907	-199.525	-58.8322	21.9181	-202.375	-78.4539	7.20334	-177.384	-67.715	51.9132	-142.228	-83.1182	42.0481	-112.885	-63.8516	59.4034	-162.975	-86.0322	68.0605	-131.792	-84.3715	61.1324	-110.742	-65.2578	79.1398	-157.823	-88.6901	88.7832	-125.981	-84.0526	86.5434	-114.426	-56.6237	103.021	-199.075	-50.8336	115.742	-200.16	-29.7489	144.826	-197.684	-12.137	106.906	
226	1.88333	-149.785	9.8168	101.673	-120.307	-10.2972	88.6615	-97.1363	-35.0775	70.5933	-95.669	-64.7827	66.7731	-183.832	-34.6119	42.8526	-186.424	-48.3203	16.9273	-187.67	-62.5822	-3.72556	-168.58	-63.2671	48.5426	-131.944	-76.2235	41.4077	-105.385	-59.3161	63.8293	-157.271	-78.0891	65.0491	-126.096	-82.6562	66.0157	-106.37	-57.9286	85.4478	-153.56	-88.6474	89.2052	-120.942	-81.6526	91.2005	-115.391	-54.1501	103.797	-195.574	-50.8259	111.396	-200.225	-26.8678	138.446	-193.993	-8.79957	107.997	
227	1.89167	-145.43	9.89042	108.299	-113.861	-8.81703	95.4948	-92.1268	-34.9396	83.4152	-88.4566	-63.5053	78.5862	-169.787	-29.4717	41.4629	-167.374	-38.2285	15.4567	-163.923	-53.2153	-10.9283	-156.583	-58.9153	47.8728	-119.272	-71.6306	43.9845	-94.7598	-57.6823	71.0913	-147.383	-79.5204	67.9958	-115.011	-78.3272	70.3066	-99.8135	-55.7033	95.3819	-149.578	-82.9928	92.1012	-116.916	-80.346	95.8456	-109.569	-53.0951	114.111	-192.171	-44.6679	104.898	-197.906	-26.9012	136.709	-189.251	-4.41038	101.084	
228	1.9	-141.212	12.6571	109.563	-107.561	-4.7385	103.58	-84.0525	-31.5631	94.6326	-74.5619	-60.8539	88.2123	-155.979	-31.4918	39.0656	-149.394	-38.2954	16.2404	-142.718	-48.5301	-11.3958	-143.789	-59.9203	51.0829	-107.871	-71.1093	52.3906	-86.8441	-58.3967	80.4049	-140.388	-77.2769	75.7686	-105.446	-75.5939	77.6077	-92.5011	-55.1755	99.4202	-140.598	-83.7195	98.4175	-105.623	-73.614	105.452	-109.077	-44.6405	118.133	-186.015	-46.3076	107.178	-196.696	-24.9967	133.257	-183.691	-3.61258	102.256	
229	1.90833	-137.882	12.1513	111.684	-101.87	-1.8793	109.376	-77.4888	-28.2565	102.892	-68.9057	-59.5704	97.6736	-145.617	-25.8961	41.3057	-135.776	-35.5053	17.759	-127.115	-46.7945	-4.52074	-135.408	-56.6057	55.628	-95.2532	-67.8413	58.2582	-78.7674	-57.2135	88.9443	-129.235	-76.8344	77.1203	-97.8748	-76.2544	87.0295	-87.4328	-51.0564	112.538	-129.64	-82.9697	100.517	-102.572	-74.1881	109.563	-102.536	-43.125	127.213	-179.078	-44.0537	106.999	-194.357	-27.0508	133.864	-178.825	-9.02285	100.271	
230	1.91667	-134.042	14.2923	113.476	-98.4233	-5.05869	110.508	-72.6557	-27.8403	106.837	-65.5868	-57.0408	103.576	-139.537	-25.6045	43.8395	-127.232	-35.9252	18.4548	-118.492	-47.3619	-4.37034	-130.435	-60.521	58.8332	-91.6062	-67.642	61.5557	-73.544	-51.786	95.5025	-124.036	-71.889	77.2915	-95.5205	-77.4485	89.6637	-84.1385	-50.7875	111.85	-129.602	-82.6276	103.418	-98.119	-69.2172	114.119	-103.266	-40.9388	130.108	-177.137	-45.2311	103.385	-189.56	-23.5912	127.537	-176.102	-6.34807	100.016	
231	1.925	-132.9	11.7776	112.364	-94.1763	-2.56273	109.722	-70.9961	-27.7987	105.522	-61.7276	-54.7565	103.528	-135.981	-24.2465	41.1948	-125.177	-33.0924	19.7458	-116.983	-49.1765	-6.05235	-125.597	-56.1013	54.8795	-89.4565	-65.9339	63.7376	-73.9434	-52.0633	97.0952	-123.123	-73.3995	77.0624	-95.3187	-76.8615	90.9423	-86.3376	-50.9158	114.514	-131.248	-79.1527	100.842	-100.21	-71.1758	112.247	-100.245	-45.3047	128.192	-177.123	-42.8818	102.325	-191.351	-24.2724	127.633	-174.429	-5.06694	99.4746	
232	1.93333	-134.73	12.7959	111.187	-101.133	-5.34496	107.698	-74.0198	-26.7047	100.724	-66.351	-52.7606	98.839	-141.904	-25.8099	39.5351	-131.417	-32.1377	17.5208	-123.754	-44.0281	-4.82011	-131.571	-59.6428	54.0397	-95.0152	-66.5647	59.1165	-79.4855	-55.1927	90.2262	-127.145	-76.7698	76.1489	-98.4652	-74.0318	84.6908	-89.7337	-50.3474	111.724	-131.319	-80.8703	96.6231	-102.024	-72.9615	110.593	-103.954	-42.8888	125.861	-179.721	-40.4641	105.198	-192.714	-24.7133	130.172	-178.305	-2.58797	102.305	
233	1.94167	-141.302	13.2815	112.393	-107.118	-4.18286	103.405	-79.6278	-25.6481	93.3651	-75.6297	-58.9749	85.8387	-153.919	-25.4368	40.6169	-147.414	-35.3955	14.0951	-141.58	-49.3116	-8.54732	-143.907	-57.2236	52.607	-109.595	-69.7574	51.9048	-87.8302	-54.4041	86.1923	-140.377	-72.4282	71.5403	-107.865	-78.9281	79.649	-95.5902	-49.8499	104.305	-140.598	-82.0315	94.2267	-107.636	-73.0341	102.469	-107.362	-49.6441	119.882	-186.901	-46.2419	106.767	-197.057	-25.9474	132.753	-183.099	-6.83173	99.7669	
234	1.95	-146.192	11.1129	105.22	-113.385	-4.3876	96.3609	-90.0964	-29.1751	80.1358	-87.8012	-57.115	77.4774	-170.255	-26.875	36.8918	-166.676	-37.9065	10.9029	-163.663	-48.6047	-12.3472	-156.451	-59.632	46.3861	-120.239	-69.78	45.7027	-98.8452	-57.0632	73.4101	-148.563	-77.2974	65.4532	-119.846	-78.3376	69.4545	-104.606	-54.9088	95.4897	-150.568	-81.7116	89.4963	-117.072	-78.4033	94.487	-111.411	-50.4013	111.18	-193.119	-44.1863	105.309	-201.004	-24.1249	132.645	-190.948	-5.26787	102.385	
235	1.95833	-155.408	13.0316	105.483	-123.169	-3.91899	85.5062	-100.953	-27.0637	69.3845	-101.021	-57.7697	63.9248	-188.789	-30.338	39.3246	-188.52	-37.4978	15.5448	-190.039	-50.6976	-13.4905	-172.423	-62.9428	45.5142	-136.824	-69.0556	37.3531	-111.591	-58.2561	62.9863	-163.175	-78.5126	63.4935	-131.801	-78.5645	61.7958	-113.53	-59.0796	82.8857	-160.242	-86.4926	87.1534	-126.972	-78.096	86.1499	-120.057	-54.3194	100.789	-199.56	-45.8683	110.362	-204.201	-28.2151	140.58	-199.405	-4.25739	101.619	
236	1.96667	-162.622	14.5402	100.349	-132.462	-1.27651	78.5313	-113.393	-25.7336	58.0039	-110.486	-54.6932	51.3737	-204.413	-28.649	37.5379	-207.9	-40.1298	16.5745	-214.994	-54.5777	-9.48368	-188.386	-58.3419	47.2613	-151.923	-70.6881	33.9048	-124.275	-57.5604	52.5253	-177.516	-75.193	61.9882	-141.882	-79.4669	56.7562	-122.216	-57.6706	75.1614	-170.318	-87.0425	85.5089	-135.831	-77.5209	77.3077	-129.138	-50.662	92.5081	-206.66	-43.4544	111.787	-208.962	-30.1211	141.076	-206.614	-7.32381	106.525	
237	1.975	-173.664	8.3739	98.1736	-144.466	-3.27525	72.2701	-127.349	-24.8446	55.0297	-119.968	-51.6197	44.0508	-217.596	-30.2172	40.04	-222.05	-37.5887	19.3443	-229.878	-53.7108	-2.59112	-198.184	-58.5481	43.5092	-165.375	-66.8543	27.7943	-132.844	-55.0583	48.2436	-185.633	-76.4148	60.6073	-155.295	-78.3335	49.1577	-131.212	-55.5529	63.1232	-176.397	-82.8821	78.6433	-146.621	-80.4689	71.2588	-134.985	-50.9349	88.6116	-210.151	-48.712	113.991	-212.067	-30.8048	140.284	-214.315	-10.2347	110.753	
238	1.98333	-178.05	13.5774	97.0642	-150.315	0.838717	73.3008	-131.669	-21.3445	47.8472	-128.262	-48.7752	40.4399	-224.504	-26.6604	43.5151	-233.081	-38.5193	17.1053	-240.86	-49.138	-4.68375	-205.215	-58.7247	43.8867	-172.195	-68.9508	28.6833	-139.838	-51.5097	43.5182	-190.739	-74.3243	56.711	-163.348	-76.406	45.8621	-136.755	-55.5278	59.5084	-181.697	-85.592	78.193	-151.805	-76.9816	67.0086	-139.149	-53.4974	83.1714	-214.427	-45.1027	114.164	-215.277	-33.7755	141.826	-216.264	-6.43969	112.637	
239	1.99167	-178.417	14.6518	98.793	-152.448	-2.11445	74.2242	-134.674	-23.2132	49.9688	-129.932	-51.6978	38.6472	-225.913	-26.851	44.1657	-233.63	-32.1621	18.0268	-242.807	-46.7817	-5.80887	-208.428	-56.4261	43.6455	-176.521	-67.8153	28.3226	-142.504	-52.9868	44.925	-195.559	-73.7375	58.4052	-164.117	-74.8488	45.2146	-139.628	-59.2751	59.2177	-189.377	-80.5747	79.4831	-154.292	-77.26	66.1725	-142.226	-55.8696	79.5962	-217.874	-47.3952	111.755	-217.319	-30.8302	144.782	-220.207	-6.58967	111.186	
240	2	-174.505	11.6321	99.6725	-146.925	-1.79722	79.0163	-130.216	-25.4063	54.2277	-130.876	-54.0598	47.0541	-220.962	-21.0289	41.4357	-228.239	-28.8692	12.6769	-232.687	-35.3114	-8.51707	-205.789	-55.4347	40.5465	-178.17	-65.3094	26.9808	-140.902	-54.1041	46.3806	-195.921	-68.2386	54.2263	-165.977	-74.4991	45.9257	-137.292	-59.4678	64.172	-189.972	-84.5367	75.6949	-157.569	-80.3545	68.3426	-143.856	-56.354	84.169	-221.89	-43.9974	111.57	-218.759	-27.3567	139.408	-219.317	-2.29141	109.271	
241	2.00833	-169.253	9.69084	108.971	-139.857	-8.04733	85.3436	-124.595	-33.326	59.6989	-125.712	-58.1701	54.0756	-208.139	-11.8509	38.3476	-210.257	-16.7298	12.024	-212.994	-26.3501	-13.5979	-201.37	-46.1126	39.5419	-169.684	-61.4616	26.3738	-137.871	-59.1836	50.137	-194.289	-66.9851	53.3011	-160.38	-77.5369	49.5745	-136.688	-60.8645	70.8675	-191.252	-82.4083	75.9654	-156.511	-80.3592	72.9898	-145.153	-60.9434	93.7521	-222.913	-38.6198	108.105	-221.35	-25.9759	138.907	-214.198	-2.67715	106.16	
242	2.01667	-159.724	8.1591	111.415	-135.779	-16.0196	92.8837	-116.185	-39.0421	71.7234	-119.005	-67.5733	58.7823	-191.589	-8.14929	34.6739	-190.794	-14.4304	8.78593	-190.055	-22.3353	-17.2717	-190.269	-46.3721	39.1233	-157.454	-62.7028	31.0108	-132.917	-66.0417	58.6453	-189.613	-69.0264	55.7426	-156.025	-75.9868	53.6463	-134.118	-67.2964	82.3786	-189.013	-80.2416	75.4854	-155.552	-80.9581	77.3154	-144.879	-61.7462	103.44	-217.937	-31.4317	102.797	-220.251	-19.6719	135.739	-206.736	4.00666	104.319	
